Coordinates
version=1
nRows=37
nColumns=19
inDegrees=yes

Units are S.I. units (second, meters, Newtons, ...)
If the header above contains a line with 'inDegrees', this indicates whether rotational values are in degrees (yes) or radians (no).

endheader
time	pelvis_tilt	pelvis_list	pelvis_rotation	pelvis_tx	pelvis_ty	pelvis_tz	hip_flexion_r	hip_adduction_r	hip_rotation_r	knee_angle_r	knee_angle_r_beta	ankle_angle_r	hip_flexion_l	hip_adduction_l	hip_rotation_l	knee_angle_l	knee_angle_l_beta	ankle_angle_l
     11.49333333	     -4.67854244	     -3.92631401	      1.52376019	      2.37407131	      1.06652569	      1.03244218	     25.32663326	      5.29368230	     -2.68133222	     17.64233855	      0.30791690	     -7.99118495	     -7.72254047	     -6.93735141	     -3.71185791	     46.67648215	      0.81465830	    -18.87860942
     11.50000000	     -3.91609540	     -4.31434954	      1.34025692	      2.37339094	      1.06291270	      1.03275417	     24.69871769	      5.91406315	     -2.64223799	     18.98552997	      0.33136001	     -7.05707187	     -7.53076882	     -7.35599230	     -3.01801165	     49.65421902	      0.86662961	    -18.02446235
     11.50666667	     -3.91566209	     -4.66556981	      1.48835227	      2.37232366	      1.05804213	      1.03278709	     25.00098756	      6.29014061	     -3.03390915	     20.72838345	      0.36177854	     -5.87116776	     -6.19933272	     -7.73064165	     -1.82554540	     53.00919012	      0.92518490	    -17.29980483
     11.51333333	     -3.66255652	     -4.94038372	      1.45030856	      2.37117914	      1.05313836	      1.03295843	     25.03014820	      6.70171543	     -3.06102493	     22.71181025	      0.39639587	     -4.16412145	     -5.17984419	     -7.98570082	     -0.89753543	     56.25275702	      0.98179582	    -16.66302507
     11.52000000	     -2.93558077	     -5.27844473	      1.33469192	      2.37002648	      1.04854270	      1.03318326	     24.44626020	      7.27352001	     -2.87592062	     24.68521315	      0.43083825	     -2.02877349	     -4.70253142	     -8.36043316	     -0.26736369	     59.37537122	      1.03629572	    -16.11945912
     11.52666667	     -3.15690127	     -5.46762589	      1.47782782	      2.36840070	      1.04265158	      1.03311219	     25.00098739	      7.51308455	     -2.99431995	     26.97910763	      0.47087426	      0.25790120	     -2.90577638	     -8.47933197	      0.89674958	     62.77361054	      1.09560619	    -15.65105505
     11.53333333	     -2.41632748	     -5.78485005	      1.38035244	      2.36687121	      1.03784380	      1.03326545	     24.34077032	      8.09397568	     -2.72420740	     29.05499041	      0.50710525	      2.84469747	     -2.30889669	     -8.85215953	      1.43461361	     65.84443892	      1.14920225	    -15.27805301
     11.54000000	     -2.70484163	     -5.90678180	      1.47594112	      2.36488178	      1.03186281	      1.03314326	     24.89285901	      8.31329183	     -2.71736672	     31.35458108	      0.54724068	      5.40181169	     -0.33911367	     -8.86157060	      2.49749018	     69.11498442	      1.20628404	    -14.93242124
     11.54666667	     -2.51632982	     -6.10119395	      1.46199108	      2.36286134	      1.02660916	      1.03307336	     24.80334385	      8.70650361	     -2.54389551	     33.44434923	      0.58371401	      7.96643248	      1.06395961	     -9.02772707	      3.21708524	     72.15867310	      1.25940643	    -14.61049527
     11.55333333	     -2.36161695	     -6.25739424	      1.43728339	      2.36067632	      1.02158074	      1.03294066	     24.69737873	      9.06472303	     -2.35034747	     35.43477416	      0.61845348	     10.41469074	      2.54808585	     -9.15542209	      3.88283478	     75.08352521	      1.31045473	    -14.26539898
     11.56000000	     -2.24679553	     -6.36655630	      1.39743946	      2.35837254	      1.01686840	      1.03267658	     24.56942056	      9.37446006	     -2.12744714	     37.28475139	      0.65074167	     12.66029533	      4.11244846	     -9.23224929	      4.48616890	     77.87114684	      1.35910790	    -13.80704591
     11.56666667	     -2.16798072	     -6.42665220	      1.36253249	      2.35597147	      1.01255404	      1.03241386	     24.40561963	      9.62676357	     -1.90285010	     38.97286932	      0.68020489	     14.68390278	      5.75441748	     -9.28098416	      5.03179857	     80.49266235	      1.40486198	    -13.32096943
     11.57333333	     -2.12721895	     -6.39058816	      1.30769132	      2.35353624	      1.00869644	      1.03203736	     24.19521385	      9.77504767	     -1.61593504	     40.49209691	      0.70672041	     16.47256103	      7.45082067	     -9.23270295	      5.48852009	     82.92431509	      1.44730233	    -12.71238344
     11.58000000	     -2.10006000	     -6.29517160	      1.27505562	      2.35114334	      1.00536822	      1.03159023	     23.90282549	      9.83679475	     -1.34094046	     41.81761767	      0.72985511	     18.02103684	      9.17822645	     -9.15165248	      5.87487162	     85.14797438	      1.48611250	    -12.02700234
     11.58666667	     -1.66299984	     -6.18822491	      1.21491902	      2.34895426	      1.00313101	      1.03111876	     22.98638573	      9.91008995	     -0.99363855	     42.82616454	      0.74745758	     19.37651533	     10.38881472	     -9.14630951	      6.05053318	     87.05831658	      1.51945427	    -11.20701853
     11.59333333	     -2.04546416	     -5.88606064	      1.27024481	      2.34659929	      1.00045380	      1.03051537	     22.94154628	      9.67025906	     -0.76946841	     43.78235278	      0.76414621	     20.47995095	     12.63072088	     -8.82342865	      6.42068294	     88.90935899	      1.55176105	    -10.37024866
     11.60000000	     -1.64509505	     -5.65716236	      1.25135667	      2.34461309	      0.99933293	      1.03008181	     21.81632627	      9.58687769	     -0.40143140	     44.34578681	      0.77397999	     21.39906324	     13.87321249	     -8.75872543	      6.45369157	     90.35260738	      1.57695049	     -9.52355417
     11.60666667	     -1.38643545	     -5.36088712	      1.26010545	      2.34273710	      0.99866667	      1.02954382	     20.70026135	      9.39035414	     -0.06452876	     44.65286933	      0.77933959	     22.18900957	     15.25783447	     -8.60494983	      6.45292748	     91.56658824	      1.59813845	     -8.59493229
     11.61333333	     -1.30869443	     -4.98888511	      1.29802807	      2.34116824	      0.99835994	      1.02899813	     19.62380735	      9.06131857	      0.18576303	     44.70303217	      0.78021510	     22.97241550	     16.78590280	     -8.36945204	      6.39797339	     92.53387022	      1.61502070	     -7.51392764
     11.62000000	     -1.84815620	     -4.42965173	      1.47542326	      2.33952462	      0.99785654	      1.02831673	     19.18647778	      8.41995115	      0.22084586	     44.70886080	      0.78031683	     23.49757908	     19.05327429	     -7.82448548	      6.44088898	     93.34373211	      1.62915546	     -6.66691084
     11.62666667	     -1.82989053	     -4.04005776	      1.47774178	      2.33831253	      0.99865701	      1.02794806	     17.88685503	      8.07575287	      0.48835808	     44.24811972	      0.77227538	     23.88894201	     20.53139842	     -7.64755649	      6.15059087	     93.78265260	      1.63681607	     -5.80403390
     11.63333333	     -1.90499651	     -3.63735751	      1.45905583	      2.33729498	      0.99986447	      1.02763498	     16.57683839	      7.68696031	      0.68650130	     43.58783475	      0.76075123	     24.15009351	     22.04070750	     -7.47698832	      5.76309948	     93.97241074	      1.64012797	     -5.04039128
     11.64000000	     -2.04868713	     -3.21348766	      1.44753784	      2.33644199	      1.00148164	      1.02735672	     15.22915501	      7.29172543	      0.94629581	     42.72011762	      0.74560671	     24.31870911	     23.53826594	     -7.23506788	      5.35871311	     93.91842799	      1.63918580	     -4.22886453
     11.64666667	     -2.27057572	     -2.79407276	      1.39273221	      2.33581738	      1.00348101	      1.02716459	     13.87790236	      6.87573529	      1.15318263	     41.68025789	      0.72745773	     24.31584071	     25.01701387	     -7.02572066	      4.84085730	     93.61466191	      1.63388408	     -3.50207283
     11.65333333	     -2.55861736	     -2.35238639	      1.31020167	      2.33548724	      1.00598322	      1.02705431	     12.48607274	      6.45599255	      1.44550910	     40.42421357	      0.70553562	     24.10117860	     26.43858397	     -6.76823167	      4.26393982	     93.02497406	      1.62359208	     -2.77191778
     11.66000000	     -1.63441314	     -1.68964716	      0.93719194	      2.33549096	      1.01050309	      1.02722265	      9.59781149	      5.89424140	      2.18396539	     38.83975868	      0.67788167	     23.65005617	     26.21940126	     -6.46518981	      3.17509179	     91.99525805	      1.60562015	     -1.97015193
     11.66666667	     -2.18480388	     -1.30725249	      0.83773692	      2.33550299	      1.01347830	      1.02716332	      8.42667965	      5.47973061	      2.36812489	     37.38569466	      0.65250347	     22.92005012	     27.75245871	     -6.25732713	      2.51871610	     90.98798031	      1.58803984	     -1.34726593
     11.67333333	     -1.78808909	     -0.66650185	      0.46301095	      2.33596714	      1.01812074	      1.02742020	      6.09430308	      4.82206882	      2.88070082	     35.67301948	      0.62261164	     21.91705078	     27.92895889	     -5.94474445	      1.38028481	     89.54847947	      1.56291581	     -0.65692974
     11.68000000	     -2.42315629	     -0.22608488	      0.32577814	      2.33631756	      1.02170261	      1.02742017	      5.01788249	      4.31566902	      3.06307377	     34.13226037	      0.59572032	     20.58063707	     29.32240635	     -5.65924554	      0.60364006	     88.09524884	      1.53755215	     -0.08152274
     11.68666667	     -2.23140118	      0.52181911	     -0.04405342	      2.33715231	      1.02669006	      1.02770544	      2.97766003	      3.45155244	      3.36522004	     32.44391991	      0.56625322	     19.04573434	     29.50305550	     -5.21185686	     -0.65512305	     86.21172262	      1.50467841	      0.54645050
     11.69333333	     -2.44669397	      1.07726316	     -0.22611348	      2.33794396	      1.03133640	      1.02782695	      1.46108006	      2.76640710	      3.42883601	     30.81858465	      0.53788577	     17.16059105	     30.14230482	     -4.85979704	     -1.66472547	     84.24699598	      1.47038746	      1.11062111
     11.70000000	     -3.31600291	      1.42771902	     -0.32338408	      2.33872958	      1.03523090	      1.02782058	      0.80058208	      2.27885061	      3.29684096	     29.41060932	      0.51331197	     15.01519104	     31.48991609	     -4.67365808	     -2.52719615	     82.22330602	      1.43506741	      1.63177794
     11.70666667	     -3.11050165	      2.19970161	     -0.50383886	      2.33986815	      1.04078580	      1.02802880	     -1.07887068	      1.32990511	      3.23419819	     27.83795724	      0.48586401	     12.63075331	     31.37394467	     -4.08571637	     -3.71820476	     79.73610349	      1.39165754	      2.09184303
     11.71333333	     -3.44211342	      2.68952991	     -0.58209099	      2.34093268	      1.04562296	      1.02812563	     -2.23724250	      0.68263993	      3.00690507	     26.46281160	      0.46186319	     10.05856010	     31.85005484	     -3.75372061	     -4.73125496	     77.21487585	      1.34765382	      2.46401650
     11.72000000	     -4.34281265	      2.88492696	     -0.55836687	      2.34189671	      1.04967081	      1.02806570	     -2.60979732	      0.34191029	      2.60372138	     25.34706732	      0.44238978	      7.28001715	     32.95336943	     -3.72144748	     -5.62862527	     74.68847762	      1.30355985	      2.79563765
     11.72666667	     -5.00480053	      3.18173502	     -0.49000305	      2.34291990	      1.05413350	      1.02788031	     -3.19707431	     -0.09550974	      2.24510088	     24.24907770	      0.42322625	      4.37219137	     33.65566053	     -3.47548031	     -6.48655421	     71.89196248	      1.25475145	      2.92361395
     11.73333333	     -4.51972634	      3.85055311	     -0.48775906	      2.34436767	      1.05997212	      1.02784201	     -5.08924021	     -0.94691973	      1.80635201	     22.98230270	      0.40111685	      1.51553577	     32.83681110	     -2.89765959	     -7.70316627	     68.68977302	      1.19886270	      3.03069770
